<?xml version="1.0" encoding="utf-8"?>
<!-- Generator: Adobe Illustrator 16.0.0, SVG Export Plug-In . SVG Version: 6.00 Build 0)  -->
<!DOCTYPE svg PUBLIC "-//W3C//DTD SVG 1.1//EN" "http://www.w3.org/Graphics/SVG/1.1/DTD/svg11.dtd">
<svg version="1.1" id="Vrstva_1" xmlns="http://www.w3.org/2000/svg" xmlns:xlink="http://www.w3.org/1999/xlink" x="0px" y="0px"
	 width="246.388px" height="117.383px" viewBox="0 0 246.388 117.383" enable-background="new 0 0 246.388 117.383"
	 xml:space="preserve">
<g>
	<path fill="#BF2A34" d="M195.25,89.84V78.625c1.496,0,4.148-0.19,5.084-1.463c1.289-1.753,0.924-5.941-1.088-12.448
		c-0.229-0.569-0.461-1.132-0.691-1.688c-2.32-5.615-5.207-12.604-0.871-19.99c2.838-4.836,7.982-7.609,14.115-7.609v11.215
		c-2.143,0-3.637,0.697-4.443,2.071c-1.383,2.356-0.67,4.623,1.564,10.031c0.273,0.662,0.551,1.333,0.822,2.013l0.146,0.41
		c1.559,4.999,4.805,15.401-0.52,22.642C206.424,87.811,201.674,89.84,195.25,89.84L195.25,89.84z"/>
</g>
<g>
	<polygon points="61.375,27.535 71.696,18.424 63.218,18.424 55.144,25.691 46.665,18.424 38.189,18.424 48.507,27.535 
		27.549,27.535 27.549,32.384 218.879,32.384 218.879,27.535 	"/>
	<path d="M55.667,42.084c7.219,0,14.245,4.042,17.903,10.299h7.988c-4.042-10.588-14.822-17.134-25.988-17.134
		c-15.208,0-28.492,11.84-28.492,27.433c0,16.075,13.091,27.625,28.78,27.625c11.357,0,20.887-6.353,25.604-16.651H73.57
		c-4.621,6.448-10.299,9.817-18.481,9.817c-11.743,0-20.887-9.24-20.887-20.887C34.202,50.746,44.02,42.084,55.667,42.084z"/>
</g>
<path fill="#BF2A34" d="M88.478,65.281c0.385,10.01,10.106,18.191,19.828,18.191c7.797,0,15.689-4.331,18.866-11.55h7.412
	c-3.658,10.588-14.439,18.384-25.604,18.384c-15.4,0-27.625-12.128-27.625-27.528c0-15.305,12.128-27.529,27.433-27.529
	c8.277,0,15.882,3.754,21.176,10.203c4.909,6.064,5.968,12.225,6.16,19.829H88.478z M129,58.832
	c-1.828-9.337-10.395-16.748-20.117-16.748c-9.914,0-18.673,7.026-20.405,16.748H129z"/>
<path d="M144.179,36.404v9.048c4.138-6.834,13.38-10.203,20.983-10.203c7.699,0,14.822,2.984,21.561,10.203
	c3.176,2.888,6.256,9.818,6.256,17.519c0,15.689-13.186,27.336-28.49,27.336c-7.797,0-16.459-3.754-19.925-11.069v28.299h-7.122
	V36.404H144.179z M185.855,62.874c0-11.454-9.24-20.79-20.693-20.79c-11.551,0-21.08,8.566-21.08,20.213
	c0,5.775,1.443,10.588,5.582,14.727c3.947,4.14,9.338,6.449,15.016,6.449C176.424,83.473,185.855,74.714,185.855,62.874z"/>
</svg>
