<svg xmlns="http://www.w3.org/2000/svg" xmlns:svg="http://www.w3.org/2000/svg" id="Vrstva_1" width="191.801" height="89.113" x="0" y="0" enable-background="new 0 0 246.388 117.383" version="1.1" viewBox="0 0 191.801 89.113" xml:space="preserve"><g id="g1165" transform="translate(-27.078,-18.424)"><path id="path1163" fill="#fff" d="M 195.25,89.84 V 78.625 c 1.496,0 4.148,-0.19 5.084,-1.463 1.289,-1.753 0.924,-5.941 -1.088,-12.448 -0.229,-0.569 -0.461,-1.132 -0.691,-1.688 -2.32,-5.615 -5.207,-12.604 -0.871,-19.99 2.838,-4.836 7.982,-7.609 14.115,-7.609 v 11.215 c -2.143,0 -3.637,0.697 -4.443,2.071 -1.383,2.356 -0.67,4.623 1.564,10.031 0.273,0.662 0.551,1.333 0.822,2.013 l 0.146,0.41 c 1.559,4.999 4.805,15.401 -0.52,22.642 -2.944,4.002 -7.694,6.031 -14.118,6.031 z"/></g><g id="g1171" transform="translate(-27.078,-18.424)"><polygon id="polygon1167" fill="#fff" points="63.218 18.424 55.144 25.691 46.665 18.424 38.189 18.424 48.507 27.535 27.549 27.535 27.549 32.384 218.879 32.384 218.879 27.535 61.375 27.535 71.696 18.424"/><path id="path1169" fill="#fff" d="m 55.667,42.084 c 7.219,0 14.245,4.042 17.903,10.299 h 7.988 C 77.516,41.795 66.736,35.249 55.57,35.249 c -15.208,0 -28.492,11.84 -28.492,27.433 0,16.075 13.091,27.625 28.78,27.625 11.357,0 20.887,-6.353 25.604,-16.651 H 73.57 c -4.621,6.448 -10.299,9.817 -18.481,9.817 -11.743,0 -20.887,-9.24 -20.887,-20.887 0,-11.84 9.818,-20.502 21.465,-20.502 z"/></g><path id="path1173" fill="#fff" d="m 61.4,46.857 c 0.385,10.01 10.106,18.191 19.828,18.191 7.797,0 15.689,-4.331 18.866,-11.55 h 7.412 c -3.658,10.588 -14.439,18.384 -25.604,18.384 -15.4,0 -27.625,-12.128 -27.625,-27.528 0,-15.305 12.128,-27.529 27.433,-27.529 8.277,0 15.882,3.754 21.176,10.203 4.909,6.064 5.968,12.225 6.16,19.829 z m 40.522,-6.449 C 100.094,31.071 91.527,23.66 81.805,23.66 71.891,23.66 63.132,30.686 61.4,40.408 h 40.522 z"/><path id="path1175" fill="#fff" d="m 117.101,17.98 v 9.048 c 4.138,-6.834 13.38,-10.203 20.983,-10.203 7.699,0 14.822,2.984 21.561,10.203 3.176,2.888 6.256,9.818 6.256,17.519 0,15.689 -13.186,27.336 -28.49,27.336 -7.797,0 -16.459,-3.754 -19.925,-11.069 v 28.299 h -7.122 V 17.98 Z m 41.676,26.47 c 0,-11.454 -9.24,-20.79 -20.693,-20.79 -11.551,0 -21.08,8.566 -21.08,20.213 0,5.775 1.443,10.588 5.582,14.727 3.947,4.14 9.338,6.449 15.016,6.449 11.744,0 21.175,-8.759 21.175,-20.599 z"/></svg>