<?xml version="1.0" encoding="UTF-8" standalone="no"?>
<!-- Generator: Adobe Illustrator 19.0.1, SVG Export Plug-In . SVG Version: 6.00 Build 0)  -->

<svg
   version="1.1"
   id="Layer_1"
   x="0px"
   y="0px"
   viewBox="0 0 1275.2 300"
   xml:space="preserve"
   sodipodi:docname="skf.white.svg"
   width="1275.2"
   height="300"
   inkscape:version="1.2.2 (732a01da63, 2022-12-09)"
   xmlns:inkscape="http://www.inkscape.org/namespaces/inkscape"
   xmlns:sodipodi="http://sodipodi.sourceforge.net/DTD/sodipodi-0.dtd"
   xmlns="http://www.w3.org/2000/svg"
   xmlns:svg="http://www.w3.org/2000/svg"><defs
   id="defs1316" /><sodipodi:namedview
   id="namedview1314"
   pagecolor="#000000"
   bordercolor="#000000"
   borderopacity="0.25"
   inkscape:showpageshadow="2"
   inkscape:pageopacity="0"
   inkscape:pagecheckerboard="0"
   inkscape:deskcolor="#d1d1d1"
   showgrid="false"
   inkscape:zoom="0.93076923"
   inkscape:cx="650"
   inkscape:cy="64.46281"
   inkscape:window-width="1920"
   inkscape:window-height="1017"
   inkscape:window-x="-8"
   inkscape:window-y="1072"
   inkscape:window-maximized="1"
   inkscape:current-layer="Layer_1" />
<style
   type="text/css"
   id="style1299">
	.st0{fill:#FFFFFF;}
</style>
<g
   id="g1309"
   transform="translate(0.1)">
	<g
   id="g1307">
		<path
   class="st0"
   d="m 363.7,300 c 6.2,0 11.2,-5 11.2,-11.3 v -165 c 0,-6.2 -5,-11.3 -11.3,-11.2 H 157.5 c -4.1,0 -7.5,-3.4 -7.5,-7.5 V 45 c 0,-4.1 3.4,-7.5 7.5,-7.5 h 60 c 4.1,0 7.5,3.4 7.5,7.5 v 18.8 c 0,6.2 5,11.2 11.2,11.2 h 90 c 6.2,0 11.3,-5 11.3,-11.2 V 11.2 C 337.5,5 332.5,0 326.2,0 H 48.7 C 42.5,0 37.5,5 37.5,11.3 v 127.5 c 0,6.2 5,11.2 11.3,11.2 H 255 c 4.1,0 7.5,3.4 7.5,7.5 V 255 c 0,4.1 -3.4,7.5 -7.5,7.5 H 120 c -4.1,0 -7.5,-3.4 -7.5,-7.5 v -56.2 c 0,-6.2 -5,-11.2 -11.3,-11.2 h -90 c -6.2,0 -11.3,5 -11.3,11.2 v 90 C 0,295 5,300 11.3,300 Z"
   id="path1301" />
		<path
   class="st0"
   d="m 562.5,192.3 c 0,-1 0.8,-1.9 1.9,-1.9 0.5,0 1,0.2 1.3,0.5 0.3,0.3 104.9,105 105.8,105.9 0.6,0.6 3.4,3.2 7.9,3.2 h 134.4 c 6.2,0 11.2,-5 11.2,-11.2 v -90 c 0,-6.2 -5,-11.2 -11.2,-11.2 h -97 c -4.3,0 -7.1,-2.4 -7.8,-3.1 -1.4,-1.4 -70.2,-70.3 -70.6,-70.6 -0.3,-0.3 -0.6,-0.8 -0.6,-1.3 0,-0.5 0.2,-1 0.6,-1.3 0.3,-0.3 32.3,-32.4 32.8,-32.9 1.8,-1.8 4.6,-3.2 7.9,-3.2 2.8,0 97.1,0 97.1,0 6.2,0 11.3,-5 11.3,-11.2 V 11.5 c 0,-6.2 -5,-11.2 -11.2,-11.2 h -96.9 c -4.5,0 -7.2,2.6 -7.9,3.2 -0.6,0.3 -105.5,105.3 -105.8,105.6 -0.3,0.3 -0.8,0.5 -1.3,0.5 -1,0 -1.9,-0.8 -1.9,-1.9 V 11.2 C 562.5,5 557.5,0 551.2,0 H 442.5 c -6.2,0 -11.2,5 -11.2,11.2 v 90 c 0,6.2 5,11.3 11.2,11.3 4.1,0 7.5,3.4 7.5,7.5 v 60 c 0,4.1 -3.4,7.5 -7.5,7.5 -6.2,0 -11.2,5 -11.2,11.2 v 90 c 0,6.2 5,11.3 11.2,11.3 h 108.7 c 6.2,0 11.3,-5 11.3,-11.3 z"
   id="path1303" />
		<path
   class="st0"
   d="m 1001.2,300 c 6.2,0 11.3,-5 11.3,-11.3 v -90 c 0,-6.2 -5,-11.2 -11.3,-11.2 -4.1,0 -7.5,-3.4 -7.5,-7.5 v -22.5 c 0,-4.2 3.4,-7.5 7.5,-7.5 h 41.2 c 4.1,0 7.5,3.4 7.5,7.5 0,6.2 5,11.2 11.3,11.2 h 90.1 c 6.2,0 11.2,-5 11.2,-11.2 V 105 c 0,-6.2 -5,-11.2 -11.2,-11.2 h -90.1 c -6.2,0 -11.3,5 -11.3,11.2 0,4.1 -3.4,7.5 -7.5,7.5 h -41.2 c -4.1,0 -7.5,-3.4 -7.5,-7.5 V 45 c 0,-4.1 3.4,-7.5 7.5,-7.5 h 116.3 c 4.1,0 7.5,3.4 7.5,7.5 v 18.8 c 0,6.2 5,11.2 11.3,11.2 h 127.5 c 6.2,0 11.3,-5 11.3,-11.2 V 11.2 C 1275.1,5 1270.1,0 1263.8,0 H 892.5 c -6.2,0 -11.2,5 -11.2,11.2 v 90 c 0,6.2 5,11.3 11.2,11.3 4.1,0 7.5,3.4 7.5,7.5 v 60 c 0,4.1 -3.4,7.5 -7.5,7.5 -6.2,0 -11.2,5 -11.2,11.2 v 90 c 0,6.2 5,11.3 11.2,11.3 z"
   id="path1305" />
	</g>
</g>
<path
   class="st0"
   d="m 1207.5,262.9 c 0,-17.5 13.2,-30.7 30.1,-30.7 16.7,0 30,13.2 30,30.7 0,17.8 -13.2,30.9 -30,30.9 -16.8,0 -30.1,-13.1 -30.1,-30.9 z m 30.2,37.1 c 20.2,0 37.4,-15.7 37.4,-37.1 0,-21.2 -17.2,-36.9 -37.4,-36.9 -20.4,0 -37.6,15.7 -37.6,36.9 0,21.4 17.2,37.1 37.6,37.1 z m -6.7,-34.5 h 6.5 l 9.9,16.3 h 6.4 l -10.7,-16.5 c 5.5,-0.7 9.7,-3.6 9.7,-10.3 0,-7.4 -4.4,-10.7 -13.3,-10.7 h -14.3 v 37.6 h 5.7 v -16.4 z m 0,-4.8 V 249 h 7.7 c 4,0 8.2,0.9 8.2,5.5 0,5.8 -4.3,6.1 -9.1,6.1 h -6.8 z"
   id="path1311" />
</svg>
