<?xml version="1.0" encoding="UTF-8" standalone="no"?>
<svg
   width="175.0957"
   height="33.345703"
   viewBox="0 0 175.0957 33.345703"
   version="1.1"
   id="svg1439"
   sodipodi:docname="svetlodat.white.svg"
   inkscape:version="1.2.2 (732a01da63, 2022-12-09)"
   xmlns:inkscape="http://www.inkscape.org/namespaces/inkscape"
   xmlns:sodipodi="http://sodipodi.sourceforge.net/DTD/sodipodi-0.dtd"
   xmlns="http://www.w3.org/2000/svg"
   xmlns:svg="http://www.w3.org/2000/svg">
  <defs
     id="defs1443" />
  <sodipodi:namedview
     id="namedview1441"
     pagecolor="#000000"
     bordercolor="#000000"
     borderopacity="0.25"
     inkscape:showpageshadow="2"
     inkscape:pageopacity="0"
     inkscape:pagecheckerboard="0"
     inkscape:deskcolor="#d1d1d1"
     showgrid="false"
     inkscape:zoom="6.05"
     inkscape:cx="97.520661"
     inkscape:cy="18.181818"
     inkscape:window-width="1920"
     inkscape:window-height="1017"
     inkscape:window-x="-8"
     inkscape:window-y="1072"
     inkscape:window-maximized="1"
     inkscape:current-layer="text1437" />
  <style
     id="style1435">
		text {
		font-family: &quot;Segoe UI&quot;, sans-serif;
		font-weight: 300;
		font-size: 36px;
		fill: white;
		}
	</style>
  <g
     aria-label="SVĚTLODAT"
     id="text1437"
     style="font-weight:300;font-size:36px;font-family:'Segoe UI', sans-serif;fill:#ffffff">
    <path
       d="m 0,32.009766 v -1.986329 q 2.7070313,1.722657 5.484375,1.722657 2.953125,0 4.4824219,-1.212891 1.5292971,-1.230469 1.5292971,-3.427734 0,-1.933594 -1.03711,-3.076172 Q 9.4394531,22.869141 6.0117187,20.882812 2.1796875,18.650391 1.1601562,17.15625 0.140625,15.644531 0.140625,13.675781 q 0,-2.671875 2.0742188,-4.535156 2.0742187,-1.8632813 5.5371093,-1.8632813 2.2499999,0 4.4999999,0.7558594 v 1.828125 Q 10.037109,8.859375 7.5234375,8.859375 q -2.5664063,0 -4.078125,1.300781 -1.4941406,1.300782 -1.4941406,3.304688 0,1.933594 1.0195312,3.076172 1.0371094,1.142578 4.4472656,3.111328 3.5332033,2.003906 4.6933593,3.568359 1.177735,1.546875 1.177735,3.568359 0,2.900391 -2.021485,4.728516 -2.0039061,1.828125 -5.6777343,1.828125 -1.3007812,0 -3.0058593,-0.404297 Q 0.89648438,32.537109 0,32.009766 Z"
       id="path2069" />
    <path
       d="M 26.683594,32.90625 H 25.382812 L 16.171875,7.6992187 h 1.951172 l 7.294922,20.3027343 q 0.457031,1.265625 0.65039,2.390625 h 0.07031 q 0.175781,-0.896484 0.720703,-2.425781 L 34.611328,7.6992187 h 1.863281 z"
       id="path2071" />
    <path
       d="M 40.429687,32.90625 V 7.6992187 H 52.207031 V 9.2988281 H 42.169922 V 19.40625 h 9.316406 v 1.582031 h -9.316406 v 10.335938 h 10.617187 v 1.582031 z m 6.292969,-27 H 45.931641 L 42.064453,0 h 1.511719 L 46.353516,4.21875 49.166016,0 h 1.441406 z"
       id="path2073" />
    <path
       d="M 65.267578,9.2988281 V 32.90625 H 63.544922 V 9.2988281 H 56.267578 V 7.6992187 h 16.277344 v 1.5996094 z"
       id="path2075" />
    <path
       d="M 76.833984,32.90625 V 7.6992187 h 1.740235 V 31.324219 h 10.107422 v 1.582031 z"
       id="path2077" />
    <path
       d="m 101.83008,33.345703 q -5.343752,0 -8.525393,-3.550781 -3.164062,-3.550781 -3.164062,-9.228516 0,-6.029297 3.251953,-9.65039 3.269531,-3.6386723 8.912112,-3.6386723 5.09765,0 8.24414,3.4980473 3.16406,3.480468 3.16406,9.140625 0,6.257812 -3.23437,9.84375 -3.23438,3.585937 -8.64844,3.585937 z m 0.17578,-24.486328 q -4.394532,0 -7.242188,3.181641 -2.830078,3.18164 -2.830078,8.332031 0,5.203125 2.689453,8.296875 2.689453,3.076172 7.171873,3.076172 4.67578,0 7.40039,-3.041016 2.72461,-3.058594 2.72461,-8.507812 0,-5.34375 -2.67187,-8.332032 -2.6543,-3.005859 -7.24219,-3.005859 z"
       id="path2079" />
    <path
       d="M 118.86328,32.90625 V 7.6992187 h 6.31055 q 6.27539,0 9.54492,3.1289063 3.26953,3.128906 3.26953,9.123047 0,5.765625 -3.51562,9.36914 -3.49805,3.585938 -9.66797,3.585938 z M 120.60352,9.2988281 V 31.324219 h 3.95507 q 5.60743,0 8.61328,-2.900391 3.00586,-2.917969 3.00586,-8.402344 0,-10.7226559 -11.26757,-10.7226559 z"
       id="path2081" />
    <path
       d="m 158.67773,32.90625 -2.88281,-7.839844 h -10.93359 l -2.88281,7.839844 h -1.91602 l 9.50977,-25.2070313 h 1.65234 l 9.4043,25.2070313 z M 150.94336,11.8125 q -0.19336,-0.527344 -0.31641,-1.037109 -0.12304,-0.439453 -0.26367,-0.8789066 h -0.0703 q -0.29883,1.1601566 -0.58008,1.8808596 l -4.23633,11.689453 h 9.72071 z"
       id="path2083" />
    <path
       d="M 167.81836,9.2988281 V 32.90625 H 166.0957 V 9.2988281 h -7.27734 V 7.6992187 h 16.27734 v 1.5996094 z"
       id="path2085" />
  </g>
</svg>
